<?xml version="1.0" encoding="UTF-8" standalone="no"?>
<svg xmlns="http://www.w3.org/2000/svg" width="40" height="26" version="1.0">
  <path fill="#fe78b7" d="M6.00228 25.761661c-.2420164-.10312-.6497245-.453149-.906019-.777834-.8981159-1.137779-.6339283-1.873782 2.8901563-8.051754 1.7469381-3.062497 3.1420417-5.670806 3.1002317-5.796238-.041811-.125421-1.7602211-.90483-3.8186915-1.7320029-4.5895299-1.8442477-5.3712663-2.2405554-5.8709656-2.9763403C.43721564 5.0142585.22033232 3.566705.87905048 2.9705889c.66089702-.5980977 2.15531992-1.0163807 3.21001222-.8984593.5438143.0607936 3.2777923 1.0424279 6.1386903 2.2040851 2.837004 1.1519575 5.328516 2.0944664 5.536691 2.0944664.208175 0 3.526532-1.406397 7.374127-3.125342C27.633069 1.2373965 30.382992.11999998 30.830069.11999998c.782728 0 1.344579.59399293 1.344579 1.42151322 0 .6946283-.793652 1.3918822-5.259657 4.620819-2.139753 1.5470367-3.894438 2.9098696-3.899299 3.0285142-.004864.1186347 2.112056 1.0755496 4.704265 2.1264776l4.713106 1.910768 1.068857-.539672c.58787-.296824 1.333895-.761495 1.657831-1.032609.718509-.601348.981059-.625047 1.398387-.082957.164918.214224.271619.450919.271619.450919l.875274-.14706c1.639644-.307594 2.441487 1.386155 1.164788 2.460417-.328568.276464-.891138.624333-1.250154.773048-.64544.267339-.65276.287095-.65276 1.761409 0 1.838422-.283435 2.316488-1.467552 2.475308-.472347.06335-.905453.161823-.962456.218831-.057005.056999-.279038.906247-.493409 1.887208-.579262 2.650714-1.09018 3.46144-2.181378 3.46144-1.184287 0-1.400363-.488677-1.570869-3.55269-.083207-1.4952-.185726-2.745808-.227822-2.779138-.35685-.282498-11.900107-4.729496-12.13851-4.676322-.171261.038204-2.262338 2.544365-4.646838 5.569253-2.384499 3.024888-4.5720555 5.676058-4.8612359 5.891501-.6240188.464888-1.7990183.656949-2.4145551.394683z"/>
</svg>